HIERARCHY
ROOT Hips
{
	OFFSET	0.00	0.00	0.00
	CHANNELS 6 Xposition Yposition Zposition Zrotation Xrotation Yrotation
	JOINT LeftUpLeg
	{
		OFFSET	 0.126116	-0.065224	 0.014019
		CHANNELS 3 Zrotation Xrotation Yrotation
		JOINT LeftLeg
		{
			OFFSET	 0.000000	 0.569914	 0.000000
			CHANNELS 3 Zrotation Xrotation Yrotation
			JOINT LeftFoot
			{
				OFFSET	 0.000000	 0.544423	 0.000000
				CHANNELS 3 Zrotation Xrotation Yrotation
				JOINT LeftToeBase
				{
					OFFSET	 0.000000	 0.207117	 0.000000
					CHANNELS 3 Zrotation Xrotation Yrotation
					End Site
					{
						OFFSET	 0.000000	 0.207117	 0.000000
					}
				}
			}
		}
	}
	JOINT RightUpLeg
	{
		OFFSET	-0.124023	-0.065224	 0.008373
		CHANNELS 3 Zrotation Xrotation Yrotation
		JOINT RightLeg
		{
			OFFSET	 0.000000	 0.570047	 0.000000
			CHANNELS 3 Zrotation Xrotation Yrotation
			JOINT RightFoot
			{
				OFFSET	 0.000000	 0.544354	 0.000000
				CHANNELS 3 Zrotation Xrotation Yrotation
				JOINT RightToeBase
				{
					OFFSET	 0.000000	 0.207540	 0.000000
					CHANNELS 3 Zrotation Xrotation Yrotation
					End Site
					{
						OFFSET	 0.000000	 0.207540	 0.000000
					}
				}
			}
		}
	}
	JOINT Spine
	{
		OFFSET	 0.000184	 0.117403	 0.007763
		CHANNELS 3 Zrotation Xrotation Yrotation
		JOINT Spine1
		{
			OFFSET	 0.000000	 0.137269	 0.000000
			CHANNELS 3 Zrotation Xrotation Yrotation
			JOINT Spine2
			{
				OFFSET	 0.000000	 0.156879	 0.000000
				CHANNELS 3 Zrotation Xrotation Yrotation
				JOINT LeftShoulder
				{
					OFFSET	 0.080501	 0.160143	 0.002496
					CHANNELS 3 Zrotation Xrotation Yrotation
					JOINT LeftArm
					{
						OFFSET	 0.000000	 0.164363	 0.000000
						CHANNELS 3 Zrotation Xrotation Yrotation
						JOINT LeftForeArm
						{
							OFFSET	 0.000000	 0.364576	 0.000000
							CHANNELS 3 Zrotation Xrotation Yrotation
							JOINT LeftHand
							{
								OFFSET	 0.000000	 0.360812	 0.000000
								CHANNELS 3 Zrotation Xrotation Yrotation
								JOINT LeftHandIndex1
								{
									OFFSET	 0.000000	 0.086006	 0.000000
									CHANNELS 3 Zrotation Xrotation Yrotation
									JOINT LeftHandIndex2
									{
										OFFSET	 0.000000	 0.047237	 0.000000
										CHANNELS 3 Zrotation Xrotation Yrotation
										JOINT LeftHandIndex3
										{
											OFFSET	-0.004284	 0.038165	 0.000551
											CHANNELS 3 Zrotation Xrotation Yrotation
											End Site
											{
												OFFSET	-0.004284	 0.038165	 0.000551
											}
										}
									}
								}
							}
						}
					}
				}
				JOINT Neck
				{
					OFFSET	 0.000000	 0.176489	 0.000000
					CHANNELS 3 Zrotation Xrotation Yrotation
					JOINT Head
					{
						OFFSET	 0.000000	 0.077941	 0.001747
						CHANNELS 3 Zrotation Xrotation Yrotation
						End Site
						{
							OFFSET	 0.000000	 0.077941	 0.001747
						}
					}
				}
				JOINT RightShoulder
				{
					OFFSET	-0.080363	 0.159706	-0.000306
					CHANNELS 3 Zrotation Xrotation Yrotation
					JOINT RightArm
					{
						OFFSET	 0.000000	 0.164196	 0.000000
						CHANNELS 3 Zrotation Xrotation Yrotation
						JOINT RightForeArm
						{
							OFFSET	 0.000000	 0.365611	 0.000000
							CHANNELS 3 Zrotation Xrotation Yrotation
							JOINT RightHand
							{
								OFFSET	 0.000000	 0.360648	 0.000000
								CHANNELS 3 Zrotation Xrotation Yrotation
								JOINT RightHandIndex1
								{
									OFFSET	 0.000000	 0.069977	 0.000000
									CHANNELS 3 Zrotation Xrotation Yrotation
									JOINT RightHandIndex2
									{
										OFFSET	 0.000000	 0.052305	 0.000000
										CHANNELS 3 Zrotation Xrotation Yrotation
										JOINT RightHandIndex3
										{
											OFFSET	 0.009002	 0.042196	 0.000782
											CHANNELS 3 Zrotation Xrotation Yrotation
											End Site
											{
												OFFSET	 0.009002	 0.042196	 0.000782
											}
										}
									}
								}
							}
						}
					}
				}
			}
		}
	}
}
MOTION
Frames:    13
Frame Time: 0.03333334
-0.108697	 1.264361	-0.067929	 10.467710	-6.161951	-159.916300	 177.375000	 33.522800	 26.806780	 12.558920	-39.240340	 14.672160	 8.713231	 75.770450	-16.295470	 1.146441	 26.478010	-2.653507	-175.030400	 10.231780	 18.372380	-2.108846	-25.905460	 9.156196	 1.115581	 66.683770	-1.977800	-2.061659	 37.599670	 3.096499	-6.129946	 5.346123	 21.135310	-6.914173	 14.363770	 7.702503	 3.483717	-15.447460	-5.922438	-103.341100	 2.688536	 93.093790	 26.014510	 47.883480	 9.881521	 29.555180	-1.462101	 0.301861	 1.137186	 16.596940	 45.454910	 3.880846	 55.116150	-2.226033	-8.800836	 61.560350	 9.115614	 6.613801	 34.418480	 0.048685	 3.983454	-12.052560	-3.889882	 4.674099	-10.232870	-12.272800	 103.137800	 27.657240	-97.884150	-34.427000	 42.340590	-11.038420	-34.030300	-1.261309	-0.327447	 34.853490	 4.556141	-25.514320	-4.896163	 13.076570	-0.626002	 14.078170	 36.460640	-8.841970	-8.484543	 29.630660	-1.615366
-0.110119	 1.264822	-0.066175	 9.819221	-6.324396	-160.203500	 176.895500	 33.202060	 26.303950	 12.265270	-38.588180	 14.516230	 9.451177	 75.406060	-16.817520	 1.122225	 26.148270	-2.644057	-175.682600	 9.769490	 19.022630	-2.029939	-25.057470	 10.554880	 3.665388	 68.418240	-5.468124	-1.844368	 35.192120	 2.976926	-6.019209	 5.423430	 20.792980	-6.688011	 13.761040	 7.421100	 3.515995	-15.017790	-5.955394	-103.861100	 2.568734	 93.027730	 19.518230	 49.629490	 13.721140	 29.076360	-1.440613	 0.289748	-1.332958	 14.125640	 49.318690	 3.902242	 55.092720	-2.241846	-8.784124	 61.491130	 9.093154	 6.616050	 34.466340	 0.048438	 4.105078	-11.817920	-3.859768	 4.202395	-10.100890	-12.069320	 103.712700	 27.086760	-97.889110	-26.728860	 43.547950	-15.683680	-35.644870	-1.313464	-0.363744	 31.160350	 0.463033	-32.649120	-4.901491	 13.068230	-0.626390	 14.090210	 36.534180	-8.864924	-8.484140	 29.664040	-1.617738
-0.111599	 1.265774	-0.064836	 8.826720	-5.968952	-162.407800	 177.287900	 31.982240	 23.910210	 12.103490	-38.223430	 14.134180	 9.135986	 75.115070	-16.155700	 1.130271	 26.258030	-2.647181	-176.364400	 9.573199	 17.011970	-2.078378	-25.579400	 10.850590	 4.825475	 69.012790	-6.542359	-1.831743	 35.047760	 2.970227	-5.496474	 5.353416	 20.275380	-6.904095	 13.524970	 7.726924	 3.722810	-14.588480	-5.678563	-104.049200	 2.506319	 92.943470	 11.567590	 52.073310	 17.276390	 28.935320	-1.434139	 0.286198	 1.677014	 13.768370	 47.367900	 3.893557	 55.144380	-2.236476	-8.763239	 61.404040	 9.065027	 6.619998	 34.550180	 0.047995	 4.118335	-11.227180	-3.637100	 3.552985	-9.800054	-11.050570	 104.698700	 26.319570	-97.933880	-16.985450	 44.808910	-19.110570	-36.672610	-1.346105	-0.387597	 24.058860	-4.224466	-36.500940	-4.861584	 12.868250	-0.611064	 14.072130	 36.423650	-8.830445	-8.485469	 29.553700	-1.609898
-0.111830	 1.267323	-0.063253	 7.764445	-5.429221	-164.812400	 177.836100	 30.490720	 21.364940	 11.846540	-37.636080	 13.668990	 8.849851	 74.697800	-15.583620	 1.140405	 26.395990	-2.651137	-177.232300	 9.739892	 14.855090	-2.209527	-26.970360	 11.026670	 6.306228	 69.755740	-7.790258	-1.832880	 35.060790	 2.970831	-4.945351	 5.353491	 19.353980	-6.851767	 13.088480	 7.608004	 3.868040	-14.024060	-5.390759	-104.211400	 2.449126	 92.859340	 2.492750	 53.913460	 21.824650	 31.676630	-1.556524	 0.357731	 2.500263	 13.158880	 43.943620	 3.882937	 55.200280	-2.229722	-8.742566	 61.317200	 9.037135	 6.623998	 34.635040	 0.047539	 4.121508	-10.622230	-3.405591	 2.913181	-9.503335	-9.993822	 105.691700	 25.546160	-97.967350	-8.019830	 44.769360	-21.612530	-37.303410	-1.365960	-0.402524	 15.723380	-7.060189	-41.454330	-4.819245	 12.658610	-0.594785	 14.052420	 36.302430	-8.792736	-8.486871	 29.435430	-1.601506
-0.106595	 1.267771	-0.059962	 6.669655	-4.658085	-167.239200	 178.551700	 28.972100	 18.849470	 11.611690	-37.090510	 13.241600	 8.197092	 74.290020	-14.924180	 1.148918	 26.511660	-2.654478	-177.694100	 9.515933	 12.800470	-2.282526	-27.729830	 11.190390	 7.347455	 70.311880	-8.981204	-1.818657	 34.897630	 2.963315	-4.329298	 5.485773	 17.836020	-5.924081	 12.106520	 6.780532	 3.697145	-13.146920	-5.104946	-104.388300	 2.432936	 92.786690	-5.746917	 55.150620	 26.414350	 33.472220	-1.634759	 0.407775	 3.439903	 11.837460	 39.728210	 3.840499	 54.991980	-2.196340	-8.666767	 60.993550	 8.934418	 6.617887	 34.505310	 0.048233	 4.121294	-10.064150	-3.175595	 2.337868	-9.200844	-8.929979	 106.662600	 24.758960	-97.983830	 0.745730	 44.899570	-24.826600	-37.666910	-1.377235	-0.411202	 7.625315	-9.518188	-46.302040	-4.732636	 12.305210	-0.553597	 13.987670	 35.898360	-8.667861	-8.492202	 28.965630	-1.568310
-0.101436	 1.268066	-0.057795	 5.795996	-4.285505	-169.453000	 179.191800	 27.926350	 16.471150	 11.408830	-36.612340	 12.978850	 7.769886	 74.032900	-14.463640	 1.148988	 26.512630	-2.654504	-177.939500	 9.479610	 10.933200	-2.310736	-28.020420	 11.193020	 8.480983	 71.304650	-9.817275	-1.715301	 33.693230	 2.909772	-3.852772	 5.361702	 16.831840	-6.121325	 11.654870	 6.877581	 3.861490	-12.598300	-4.770352	-104.672200	 2.651060	 92.773090	-8.983400	 54.833060	 29.904790	 33.531060	-1.637322	 0.409419	 4.463370	 8.917527	 40.581860	 3.619638	 53.225940	-2.015982	-8.291779	 59.255680	 8.414322	 6.553121	 33.115880	 0.054567	 4.113767	-9.708014	-2.923234	 2.006807	-8.771940	-7.684230	 107.631100	 23.854020	-97.961590	 5.855689	 44.305730	-27.417920	-38.355610	-1.398514	-0.427889	 8.422120	-12.788210	-40.392800	-4.377339	 11.075220	-0.359744	 13.674040	 33.802240	-8.039067	-8.515532	 26.397910	-1.390217
-0.093859	 1.268017	-0.055013	 4.894238	-3.766187	-171.716700	 179.904400	 26.744950	 14.107500	 11.182140	-36.070670	 12.699500	 7.289190	 73.747030	-14.076430	 1.149057	 26.513590	-2.654531	-178.045500	 9.155942	 9.109186	-2.303884	-27.950060	 11.213020	 9.453943	 72.154480	-10.766710	-1.616068	 32.505510	 2.860211	-3.363241	 5.313053	 15.408210	-5.624768	 10.910250	 6.437234	 3.769135	-11.867150	-4.438453	-104.952000	 2.866154	 92.760740	-12.370320	 54.476300	 33.527520	 33.324700	-1.628439	 0.403546	 5.796071	 5.942259	 40.511720	 3.419010	 51.483570	-1.855714	-7.968391	 57.539990	 7.946612	 6.490397	 31.745660	 0.058910	 4.104799	-9.356951	-2.674660	 1.678688	-8.354527	-6.453969	 108.616300	 22.885960	-97.937700	 11.538250	 43.194180	-30.409910	-38.734410	-1.410280	-0.437209	 8.687119	-16.139920	-35.807310	-4.024217	 9.863477	-0.161756	 13.398260	 31.731440	-7.446231	-8.529527	 23.863380	-1.219185
-0.085913	 1.267990	-0.052175	 4.108795	-3.271679	-173.730700	-179.418800	 25.630620	 12.031680	 10.936510	-35.474590	 12.422830	 6.795503	 73.438160	-13.721270	 1.149118	 26.514430	-2.654554	-178.085800	 8.790958	 7.514309	-2.281533	-27.719570	 11.239200	 10.217480	 72.827700	-11.643330	-1.530604	 31.457880	 2.819028	-2.947407	 5.275768	 13.986120	-4.908970	 10.234980	 5.847209	 3.572924	-11.194770	-4.143685	-105.198800	 3.055906	 92.750700	-15.045870	 54.148100	 36.444730	 33.138310	-1.620328	 0.398269	 6.845105	 3.391010	 40.113470	 3.254420	 49.946390	-1.727083	-7.715987	 56.025520	 7.565857	 6.435921	 30.537090	 0.061244	 4.095617	-9.047360	-2.455585	 1.387782	-7.991304	-5.368216	 109.441700	 22.109180	-97.888070	 15.823630	 41.841240	-32.271400	-38.183900	-1.393270	-0.423756	 8.768196	-18.862740	-32.261740	-3.710258	 8.795709	 0.018572	 13.180400	 29.902830	-6.943342	-8.534904	 21.627330	-1.071468
-0.076748	 1.268158	-0.048742	 3.292689	-2.760121	-175.891000	-178.660900	 24.388400	 9.803719	 10.612780	-34.674500	 12.086100	 6.158716	 73.026170	-13.244300	 1.149184	 26.515350	-2.654579	-178.124600	 8.480934	 5.790196	-2.258571	-27.481700	 11.268030	 10.982770	 73.538740	-12.575130	-1.439723	 30.318730	 2.776813	-2.520811	 5.199346	 12.482180	-4.194872	 9.696384	 5.263286	 3.370077	-10.559620	-3.823275	-105.467200	 3.262283	 92.740730	-17.182100	 53.748010	 38.908020	 33.246750	-1.625044	 0.401368	 7.445487	 0.928063	 39.743310	 3.087058	 48.274990	-1.599215	-7.471866	 54.378120	 7.181017	 6.377500	 29.223060	 0.062256	 4.084283	-8.710751	-2.217511	 1.069790	-7.602096	-4.187944	 110.334900	 21.265460	-97.820790	 18.901370	 40.284320	-33.030800	-36.764850	-1.349110	-0.389789	 9.593438	-21.512180	-28.353970	-3.366006	 7.635878	 0.220786	 12.968510	 27.913370	-6.415579	-8.533741	 19.197140	-0.913587
-0.068073	 1.268531	-0.045032	 2.563905	-2.326182	-177.896300	-177.935100	 23.207890	 7.709276	 10.257070	-33.776250	 11.689820	 5.286120	 72.561390	-12.495120	 1.149261	 26.516430	-2.654610	-178.178500	 8.432459	 4.130697	-2.259693	-27.493320	 11.274420	 11.737650	 74.252700	-13.407650	-1.356850	 29.257450	 2.739778	-2.116966	 5.072882	 11.265890	-3.914944	 9.494723	 4.992575	 3.329184	-10.128080	-3.526587	-105.738400	 3.463938	 92.732210	-18.143630	 53.225150	 40.244210	 34.032150	-1.658830	 0.423884	 7.369310	-1.120917	 39.630420	 2.911035	 46.423390	-1.468511	-7.231833	 52.538420	 6.782380	 6.313066	 27.753900	 0.061580	 4.070606	-8.392689	-1.987589	 0.763147	-7.243361	-3.056994	 111.209000	 20.443220	-97.743410	 20.448370	 39.203200	-32.807790	-35.404310	-1.305802	-0.358274	 12.060090	-23.785950	-24.208440	-3.036695	 6.536207	 0.419107	 12.789790	 26.024620	-5.931053	-8.526221	 16.899450	-0.766263
-0.058888	 1.268902	-0.040744	 2.261950	-2.072469	-179.024000	-177.107800	 22.526130	 6.494422	 9.971001	-33.039130	 10.530340	 1.515209	 72.146620	-8.946737	 1.149569	 26.520630	-2.654732	-177.851800	 8.401956	 2.990619	-2.230145	-27.185840	 11.070000	 12.114040	 74.020940	-13.308590	-1.353529	 29.214520	 2.738322	-1.673070	 5.042418	 10.193650	-3.407842	 9.172255	 4.604623	 3.240929	-9.938004	-3.482325	-106.159000	 3.652942	 92.730780	-17.930400	 52.391490	 40.033680	 35.235180	-1.710032	 0.459225	 11.105810	-6.698389	 36.274070	 2.378674	 40.563720	-1.101370	-6.632637	 46.479790	 5.648489	 6.105239	 22.896530	 0.046648	 4.033808	-8.293460	-1.818438	 0.579875	-7.193358	-2.376837	 112.132500	 19.684220	-97.686390	 22.007600	 39.014910	-32.348350	-35.202530	-1.299264	-0.353594	 9.451845	-23.090350	-24.176470	-2.911940	 6.095560	 0.507627	 12.723520	 25.262420	-5.739638	-8.522186	 16.101060	-0.715414
-0.049312	 1.269208	-0.036026	 1.998696	-1.845096	 179.913000	-176.225600	 21.869180	 5.325945	 9.681166	-32.278840	 9.349988	-2.316100	 71.653090	-5.359904	 1.149870	 26.524720	-2.654851	-177.488400	 8.491716	 1.878654	-2.212567	-27.002070	 10.862470	 12.351080	 73.834850	-13.082860	-1.350294	 29.172670	 2.736907	-1.228087	 4.996681	 9.260444	-3.121350	 8.983151	 4.364777	 3.235812	-9.818835	-3.442496	-106.569100	 3.837198	 92.730760	-16.344870	 51.414040	 38.548200	 36.088710	-1.745862	 0.484914	 13.995440	-11.711930	 33.222470	 1.939332	 34.801100	-0.832222	-6.252852	 40.513480	 4.720170	 5.906493	 18.134160	 0.014482	 3.997661	-8.196832	-1.653523	 0.401673	-7.146065	-1.714127	 113.029700	 18.944980	-97.618580	 23.624200	 39.572700	-32.216400	-35.618980	-1.312705	-0.363134	 8.156942	-22.811800	-23.762260	-2.789756	 5.666172	 0.594784	 12.661980	 24.519110	-5.555084	-8.517563	 15.322650	-0.665975
-0.039855	 1.269441	-0.031047	 1.762012	-1.631039	 178.894600	-175.351100	 21.210750	 4.204901	 9.386128	-31.490880	 8.144420	-6.038627	 71.066390	-1.859512	 1.150163	 26.528720	-2.654968	-177.115700	 8.665874	 0.790169	-2.206245	-26.935800	 10.651920	 12.555910	 73.699490	-12.820120	-1.347137	 29.131810	 2.735527	-0.784927	 4.941567	 8.407081	-2.973382	 8.869970	 4.203243	 3.284491	-9.738434	-3.406746	-106.969700	 4.017082	 92.731970	-13.911990	 50.434580	 36.323730	 36.434770	-1.760331	 0.495547	 16.288100	-16.346770	 30.335160	 1.564969	 29.154980	-0.633480	-6.023021	 34.664190	 3.926712	 5.713838	 13.474160	-0.032693	 3.962105	-8.102589	-1.492484	 0.228114	-7.101257	-1.067579	 113.903000	 18.224160	-97.540880	 25.052580	 40.596520	-32.135460	-35.882800	-1.321096	-0.369167	 7.345886	-22.604790	-23.130490	-2.669910	 5.247104	 0.680709	 12.604770	 23.793170	-5.376757	-8.512395	 14.562610	-0.617810
